<svg xmlns="http://www.w3.org/2000/svg" version="1.1" xmlns:xlink="http://www.w3.org/1999/xlink" xmlns:svgjs="http://svgjs.com/svgjs" width="1000" height="1000"><rect width="1000" height="1000" rx="250" ry="250" fill="#8f8f8f"></rect><g transform="matrix(2,0,0,2,100,360.5966539884868)"><svg xmlns="http://www.w3.org/2000/svg" version="1.1" xmlns:xlink="http://www.w3.org/1999/xlink" xmlns:svgjs="http://svgjs.com/svgjs" width="400" height="139.47368421052633"><svg id="svg" version="1.1" xmlns="http://www.w3.org/2000/svg" xmlns:xlink="http://www.w3.org/1999/xlink" width="400" height="139.47368421052633" viewBox="0, 0, 400,139.47368421052633"><g id="svgg"><path id="path0" d="M2.278 2.944 C 2.139 3.083,2.133 138.442,2.272 138.958 L 2.372 139.333 70.519 139.333 L 138.667 139.333 138.667 71.083 L 138.667 2.833 70.528 2.833 C 33.051 2.833,2.339 2.883,2.278 2.944 M92.286 41.683 C 95.766 42.514,97.868 44.257,99.470 47.640 L 100.075 48.917 100.079 51.417 C 100.086 55.559,98.304 58.635,94.833 60.472 C 85.318 65.507,75.785 54.744,81.740 45.690 C 82.811 44.062,85.380 42.009,86.362 41.997 C 86.484 41.996,87.146 41.852,87.833 41.677 C 89.482 41.259,90.514 41.260,92.286 41.683 M53.500 41.890 C 60.072 43.090,63.508 51.881,59.514 57.272 C 59.369 57.468,59.137 57.793,59.000 57.995 C 58.862 58.197,58.600 58.529,58.417 58.732 C 56.075 61.330,55.207 62.472,54.335 64.107 C 54.057 64.627,53.764 65.135,53.682 65.235 C 53.601 65.335,53.456 65.679,53.361 66.000 C 53.265 66.321,53.080 66.883,52.948 67.250 C 52.195 69.350,52.270 73.482,53.096 75.448 C 53.839 77.217,55.219 79.755,55.661 80.167 C 55.710 80.212,56.011 80.587,56.331 81.000 C 60.877 86.873,66.917 89.785,72.589 88.839 C 73.772 88.642,74.817 88.419,74.912 88.345 C 75.006 88.271,75.379 88.115,75.740 87.998 C 76.101 87.882,76.738 87.574,77.156 87.313 C 77.574 87.053,78.103 86.758,78.330 86.659 C 78.557 86.560,78.782 86.427,78.830 86.362 C 78.878 86.298,79.329 85.964,79.833 85.620 C 80.337 85.277,81.387 84.392,82.167 83.655 C 89.193 77.007,100.000 81.107,100.000 90.420 C 100.000 99.507,88.900 104.004,82.494 97.514 C 75.104 90.026,66.076 90.009,58.438 97.468 C 53.946 101.855,46.210 101.454,43.000 96.668 C 42.862 96.463,42.629 96.135,42.481 95.939 C 39.379 91.838,40.465 86.610,45.510 81.354 C 45.796 81.056,46.963 79.461,47.289 78.923 C 51.294 72.313,50.418 66.386,44.432 59.599 C 42.912 57.877,42.702 57.592,42.015 56.317 C 38.970 50.673,42.640 42.623,48.583 41.908 C 49.133 41.842,49.733 41.723,49.917 41.644 C 50.312 41.474,51.768 41.574,53.500 41.890 " stroke="none" fill="#ac0424" fill-rule="evenodd"></path><path id="path1" d="M270.250 35.816 C 268.455 36.086,266.593 36.824,264.752 37.994 C 262.379 39.503,260.458 41.679,257.685 46.001 C 257.425 46.405,256.987 47.295,256.454 48.500 C 256.312 48.821,256.012 49.496,255.789 50.000 C 255.241 51.233,254.781 52.496,254.330 54.000 C 254.124 54.688,253.848 55.566,253.716 55.953 C 253.584 56.340,253.406 57.165,253.320 57.787 C 253.234 58.408,253.092 59.104,253.005 59.333 C 252.248 61.312,251.847 70.395,252.394 73.174 C 252.528 73.857,252.687 74.717,252.748 75.083 C 254.245 84.227,261.470 85.756,268.583 78.434 C 270.693 76.262,271.839 74.963,272.938 73.499 C 273.591 72.629,274.293 71.729,274.498 71.500 C 274.702 71.271,275.272 70.551,275.764 69.901 C 276.755 68.589,278.913 66.338,279.901 65.584 L 280.540 65.097 280.857 65.488 C 281.197 65.908,281.177 68.178,280.814 70.333 C 280.729 70.837,280.581 71.813,280.486 72.500 C 280.390 73.188,280.166 74.500,279.988 75.417 C 279.809 76.333,279.664 77.295,279.665 77.553 C 279.666 77.811,279.522 78.673,279.346 79.469 C 278.990 81.077,278.786 82.168,278.410 84.468 C 278.271 85.321,278.047 86.443,277.912 86.961 C 277.777 87.480,277.667 88.080,277.667 88.296 C 277.667 88.512,277.523 89.340,277.347 90.136 C 277.009 91.665,276.764 92.950,276.418 95.000 C 276.203 96.278,275.796 98.528,275.483 100.167 C 274.785 103.826,274.552 106.858,274.908 107.647 C 276.802 111.847,283.415 105.375,286.895 95.917 C 287.822 93.398,285.819 93.076,283.407 95.357 L 282.487 96.228 282.139 95.880 C 281.737 95.478,281.915 91.343,282.414 89.500 C 282.551 88.996,282.663 88.321,282.663 88.000 C 282.663 87.679,282.809 86.667,282.986 85.750 C 283.164 84.833,283.464 83.183,283.652 82.083 C 283.841 80.983,284.072 79.671,284.166 79.167 C 284.709 76.236,285.253 72.886,285.479 71.083 C 285.570 70.350,285.719 69.262,285.808 68.667 C 286.733 62.518,287.040 51.761,286.362 49.250 C 286.262 48.883,286.102 48.076,286.004 47.457 C 285.906 46.837,285.724 46.087,285.599 45.790 C 285.474 45.493,285.208 44.800,285.008 44.250 C 284.808 43.700,284.579 43.137,284.499 43.000 C 282.575 39.674,281.366 38.433,278.876 37.231 C 276.283 35.978,272.878 35.420,270.250 35.816 M273.775 40.430 C 274.064 40.560,274.371 40.667,274.457 40.667 C 274.854 40.667,277.051 42.421,277.738 43.287 C 278.159 43.817,278.569 44.332,278.650 44.432 C 278.792 44.607,279.316 45.709,279.902 47.063 C 281.373 50.462,280.964 56.420,278.970 60.667 C 277.963 62.810,277.666 63.346,277.014 64.196 C 276.686 64.624,276.042 65.510,275.583 66.165 C 271.991 71.300,262.400 77.241,259.167 76.335 C 258.271 76.083,256.350 74.112,256.336 73.430 C 256.335 73.345,256.229 73.158,256.101 73.013 C 254.935 71.696,254.923 66.363,256.077 62.667 C 256.206 62.254,256.431 61.467,256.577 60.917 C 257.082 59.018,258.021 56.275,259.000 53.833 C 259.203 53.329,259.467 52.654,259.587 52.333 C 259.899 51.502,261.691 48.041,262.218 47.250 C 263.415 45.456,263.736 45.053,265.056 43.687 C 266.027 42.682,267.678 41.333,267.938 41.333 C 268.004 41.333,268.175 41.231,268.320 41.105 C 269.315 40.241,272.487 39.848,273.775 40.430 M190.714 44.034 C 190.105 44.328,190.000 45.047,190.016 48.834 C 190.024 50.805,189.953 53.204,189.858 54.167 C 189.763 55.129,189.637 57.117,189.578 58.583 C 189.519 60.050,189.368 61.775,189.243 62.417 C 189.118 63.058,188.972 64.146,188.918 64.833 C 188.829 65.955,188.468 68.275,187.983 70.833 C 187.888 71.337,187.711 72.387,187.590 73.167 C 187.390 74.448,187.183 75.434,186.640 77.667 C 186.540 78.079,186.361 78.942,186.243 79.583 C 186.125 80.225,185.956 80.938,185.868 81.167 C 185.780 81.396,185.652 81.996,185.583 82.500 C 185.515 83.004,185.388 83.603,185.302 83.830 C 185.216 84.057,185.040 84.807,184.911 85.496 C 184.782 86.186,184.601 87.050,184.510 87.417 C 184.224 88.569,183.810 90.375,183.576 91.500 C 183.118 93.692,182.719 95.432,182.542 96.000 C 182.442 96.321,182.309 96.958,182.247 97.417 C 182.185 97.875,182.069 98.370,181.991 98.518 C 181.912 98.665,181.765 99.302,181.665 99.934 C 181.565 100.566,181.368 101.421,181.227 101.833 C 181.068 102.302,180.967 103.226,180.960 104.295 C 180.944 106.515,181.214 106.814,184.298 107.996 C 185.294 108.377,191.465 108.470,195.333 108.161 C 196.387 108.077,199.500 107.898,202.250 107.763 C 205.000 107.629,208.112 107.432,209.167 107.326 C 215.721 106.666,234.594 107.112,236.030 107.961 L 236.501 108.239 237.459 107.302 C 238.735 106.055,239.478 105.356,241.324 103.667 C 243.400 101.767,243.454 101.719,244.660 100.667 C 247.411 98.267,247.378 98.307,247.461 97.301 C 247.616 95.429,246.528 95.132,244.167 96.401 C 243.938 96.524,243.187 96.926,242.498 97.295 C 240.998 98.097,239.118 98.673,236.417 99.157 C 230.733 100.177,227.959 100.815,227.207 101.277 C 226.864 101.487,226.358 101.766,226.083 101.896 C 225.474 102.185,222.161 102.602,218.628 102.835 C 217.186 102.930,215.911 103.043,215.794 103.085 C 215.678 103.126,214.046 103.275,212.167 103.414 C 210.287 103.553,207.963 103.753,207.000 103.858 C 203.698 104.219,195.838 104.132,194.000 103.714 C 189.047 102.588,187.323 100.751,188.236 97.572 C 188.366 97.120,188.521 96.337,188.581 95.833 C 188.640 95.329,188.790 94.542,188.913 94.083 C 189.037 93.625,189.187 92.837,189.247 92.333 C 189.307 91.829,189.457 91.042,189.580 90.583 C 189.703 90.125,189.853 89.337,189.913 88.833 C 189.973 88.329,190.122 87.542,190.244 87.083 C 190.366 86.625,190.516 85.688,190.577 85.000 C 190.638 84.313,190.791 83.262,190.916 82.667 C 191.041 82.071,191.189 81.096,191.244 80.500 C 191.300 79.904,191.453 78.817,191.584 78.083 C 191.933 76.136,192.350 72.993,192.511 71.083 C 192.588 70.167,192.763 68.742,192.899 67.917 C 193.035 67.092,193.191 65.779,193.245 65.000 C 193.299 64.221,193.447 62.946,193.573 62.167 C 193.700 61.387,193.850 59.954,193.906 58.981 C 193.962 58.008,194.119 56.583,194.255 55.814 C 194.584 53.949,194.597 49.934,194.277 49.065 C 194.145 48.709,193.829 47.779,193.575 47.000 C 193.017 45.287,192.489 44.445,191.753 44.096 C 191.122 43.796,191.197 43.801,190.714 44.034 M295.083 50.998 C 294.095 51.488,293.530 52.087,293.399 52.785 C 293.240 53.635,293.462 79.039,293.661 82.750 C 293.750 84.400,293.896 87.175,293.986 88.917 C 294.110 91.303,294.234 92.345,294.492 93.147 C 294.680 93.732,294.836 94.332,294.839 94.480 C 294.842 94.629,294.990 95.050,295.167 95.417 C 295.344 95.783,295.491 96.159,295.494 96.251 C 295.535 97.468,297.702 99.842,299.583 100.731 C 303.491 102.579,310.700 98.640,316.631 91.417 C 317.233 90.683,317.815 90.008,317.923 89.916 C 318.031 89.824,318.613 89.074,319.217 88.249 C 319.821 87.425,320.563 86.415,320.866 86.006 C 321.450 85.217,322.046 84.268,323.451 81.887 C 323.928 81.078,324.507 80.098,324.738 79.708 C 325.449 78.511,326.046 78.698,326.441 80.240 C 326.560 80.704,326.772 81.533,326.912 82.083 C 327.052 82.633,327.248 83.308,327.347 83.583 C 327.521 84.066,327.677 84.612,328.253 86.750 C 328.401 87.300,328.629 87.986,328.761 88.275 C 328.892 88.564,329.003 88.939,329.006 89.109 C 329.009 89.278,329.156 89.717,329.333 90.083 C 329.510 90.450,329.660 90.862,329.667 91.000 C 329.673 91.138,329.823 91.550,330.000 91.917 C 330.177 92.283,330.327 92.696,330.333 92.833 C 330.340 92.971,330.490 93.383,330.667 93.750 C 330.844 94.117,330.991 94.498,330.994 94.598 C 330.997 94.698,331.641 96.048,332.424 97.598 C 335.496 103.682,339.036 107.109,342.917 107.757 C 343.283 107.818,343.892 107.968,344.270 108.091 C 345.791 108.586,351.739 108.541,352.392 108.030 C 352.497 107.947,352.808 107.827,353.083 107.763 C 354.884 107.346,357.831 105.648,359.089 104.303 C 360.085 103.238,360.945 102.128,361.067 101.750 C 361.578 100.159,362.580 100.034,363.580 101.437 C 364.827 103.184,368.036 105.412,372.667 107.745 C 373.537 108.183,374.325 108.598,374.417 108.666 C 376.320 110.074,383.852 109.931,387.250 108.421 C 391.734 106.429,393.129 98.500,390.241 91.417 C 390.129 91.142,389.982 90.729,389.914 90.500 C 389.257 88.285,388.615 87.487,382.804 81.662 C 373.891 72.730,370.401 68.681,368.818 65.435 C 366.370 60.416,367.127 57.629,371.332 56.179 C 372.791 55.676,375.069 55.624,375.769 56.077 C 377.414 57.142,378.790 58.875,380.006 61.417 C 381.897 65.368,382.875 66.237,385.442 66.245 C 387.287 66.251,387.692 65.956,388.071 64.332 C 389.445 58.441,378.288 50.656,370.376 51.985 C 367.070 52.541,364.079 55.900,363.313 59.917 C 363.034 61.379,363.532 64.836,364.228 66.278 C 364.353 66.538,364.617 67.087,364.813 67.500 C 365.126 68.157,366.414 70.282,366.784 70.751 C 368.127 72.455,370.413 74.860,375.691 80.123 C 383.644 88.051,384.999 89.710,386.417 93.250 C 389.477 100.889,384.912 107.977,378.083 106.189 C 374.569 105.268,371.790 103.263,365.810 97.333 L 363.036 94.583 362.923 93.514 C 362.670 91.117,361.359 89.633,359.495 89.633 C 357.182 89.633,356.628 90.476,356.581 94.063 C 356.540 97.207,356.244 97.920,354.417 99.278 C 353.736 99.784,351.097 101.333,350.915 101.333 C 350.860 101.333,350.497 101.478,350.108 101.656 C 345.311 103.841,340.376 102.289,337.286 97.623 C 336.406 96.296,334.667 92.863,334.667 92.456 C 334.667 92.346,334.525 91.880,334.351 91.420 C 333.862 90.123,333.524 88.980,333.413 88.250 C 333.312 87.582,332.987 86.060,332.344 83.242 C 332.155 82.413,332.000 81.400,332.000 80.992 C 332.000 80.584,331.892 79.687,331.760 78.998 C 331.629 78.310,331.440 76.735,331.341 75.498 C 331.242 74.262,331.093 72.688,331.010 72.000 C 330.927 71.313,330.805 68.699,330.738 66.192 L 330.617 61.635 329.501 60.192 C 327.690 57.849,327.567 57.840,326.537 59.981 C 326.150 60.784,325.833 61.506,325.833 61.585 C 325.833 61.664,325.696 62.033,325.527 62.406 C 325.057 63.446,324.528 64.862,324.402 65.417 C 324.339 65.692,324.188 66.104,324.066 66.333 C 323.945 66.563,323.773 67.012,323.684 67.333 C 323.596 67.654,323.328 68.442,323.089 69.083 C 322.849 69.725,322.549 70.550,322.422 70.917 C 321.916 72.375,321.651 73.098,321.504 73.417 C 321.420 73.600,321.156 74.275,320.917 74.917 C 320.679 75.558,320.337 76.404,320.158 76.796 C 319.980 77.188,319.833 77.601,319.832 77.713 C 319.832 77.825,319.727 78.116,319.601 78.359 C 319.474 78.602,319.278 79.078,319.167 79.417 C 319.055 79.755,318.860 80.231,318.733 80.474 C 318.606 80.718,318.502 81.003,318.501 81.108 C 318.500 81.213,318.244 81.813,317.932 82.441 C 317.619 83.069,317.118 84.108,316.818 84.750 C 315.833 86.853,314.114 89.604,313.094 90.708 C 312.777 91.052,312.307 91.610,312.050 91.947 C 308.727 96.317,301.994 96.665,299.786 92.580 C 297.806 88.917,297.941 90.527,297.877 69.635 L 297.822 51.520 297.315 51.093 C 296.698 50.574,295.997 50.544,295.083 50.998 " stroke="none" fill="#101010" fill-rule="evenodd"></path><path id="path2" d="M0.000 69.667 L 0.000 139.333 0.917 139.333 L 1.833 139.333 1.833 71.104 C 1.833 7.841,1.853 2.857,2.109 2.645 C 2.550 2.279,138.220 2.220,138.778 2.586 L 139.167 2.841 139.167 71.087 L 139.167 139.333 269.583 139.333 L 400.000 139.333 400.000 69.667 L 400.000 0.000 200.000 0.000 L 0.000 0.000 0.000 69.667 M274.709 35.256 C 277.043 35.607,280.106 36.813,281.141 37.790 C 283.015 39.559,283.578 40.180,284.031 40.981 C 284.323 41.496,284.610 41.954,284.670 42.000 C 284.838 42.130,285.667 43.954,285.668 44.198 C 285.668 44.318,285.776 44.621,285.906 44.872 C 286.251 45.533,286.817 47.904,287.004 49.474 C 287.094 50.222,287.241 51.452,287.332 52.208 C 287.545 53.975,287.543 56.697,287.329 58.500 C 287.237 59.279,287.091 61.459,287.005 63.344 C 286.919 65.229,286.767 66.987,286.666 67.251 C 286.566 67.515,286.410 68.560,286.319 69.574 C 286.228 70.587,286.079 71.642,285.987 71.917 C 285.895 72.192,285.749 73.150,285.663 74.045 C 285.577 74.941,285.399 76.066,285.268 76.545 C 285.136 77.025,284.981 77.934,284.924 78.566 C 284.866 79.198,284.749 79.846,284.663 80.007 C 284.577 80.167,284.464 80.737,284.410 81.274 C 284.357 81.811,284.175 82.925,284.004 83.750 C 283.714 85.157,283.599 85.855,283.156 88.875 C 283.059 89.540,282.872 90.721,282.742 91.500 C 282.120 95.209,282.164 95.457,283.291 94.549 C 286.605 91.876,288.920 93.187,287.251 96.792 C 287.113 97.090,286.896 97.577,286.769 97.875 C 284.208 103.876,280.488 108.703,277.927 109.348 C 274.598 110.186,273.443 108.025,274.408 102.761 C 274.649 101.449,275.058 99.009,275.348 97.167 C 275.427 96.662,275.601 95.688,275.734 95.000 C 275.868 94.313,276.130 92.943,276.318 91.958 C 277.215 87.243,277.364 86.477,277.671 84.998 C 277.852 84.127,278.000 83.241,278.000 83.030 C 278.000 82.819,278.147 81.957,278.326 81.115 C 279.829 74.056,280.771 66.417,280.138 66.417 C 279.526 66.417,274.405 72.277,272.127 75.587 C 271.380 76.670,267.177 80.694,265.899 81.549 C 261.724 84.340,258.402 84.568,255.581 82.257 C 254.426 81.310,252.700 78.208,252.406 76.549 C 252.344 76.201,252.159 75.317,251.994 74.583 C 251.428 72.068,251.431 63.051,251.999 61.167 C 252.096 60.846,252.253 60.032,252.349 59.357 C 252.526 58.104,252.979 56.174,253.410 54.833 C 253.542 54.421,253.771 53.708,253.918 53.250 C 254.065 52.792,254.260 52.123,254.350 51.764 C 254.440 51.404,254.618 50.917,254.744 50.680 C 254.871 50.444,255.130 49.894,255.320 49.458 C 255.511 49.023,255.813 48.348,255.991 47.958 C 256.170 47.569,256.395 47.063,256.491 46.833 C 256.700 46.336,256.707 46.325,258.484 43.613 C 261.492 39.023,265.633 35.955,269.750 35.264 C 271.578 34.958,272.709 34.956,274.709 35.256 M270.367 41.000 C 266.972 41.719,262.704 46.504,260.315 52.269 C 260.168 52.625,259.886 53.275,259.690 53.713 C 259.494 54.151,259.331 54.601,259.328 54.713 C 259.325 54.825,259.177 55.217,259.000 55.583 C 258.823 55.950,258.673 56.362,258.667 56.500 C 258.660 56.637,258.510 57.050,258.333 57.417 C 258.156 57.783,258.009 58.235,258.006 58.421 C 258.003 58.607,257.894 58.910,257.765 59.095 C 257.636 59.280,257.449 59.869,257.350 60.405 C 257.251 60.941,257.103 61.463,257.022 61.565 C 256.942 61.667,256.793 62.227,256.693 62.810 C 256.592 63.393,256.428 63.970,256.327 64.091 C 256.007 64.476,255.761 68.686,255.963 70.308 C 256.384 73.689,258.749 76.311,260.819 75.691 C 261.169 75.586,261.598 75.500,261.772 75.500 C 261.946 75.500,262.350 75.360,262.669 75.190 C 262.989 75.019,263.422 74.826,263.632 74.760 C 263.989 74.648,267.384 72.754,267.750 72.463 C 267.842 72.390,268.693 71.759,269.643 71.060 C 271.996 69.328,274.085 67.287,275.167 65.662 C 275.304 65.456,275.574 65.091,275.766 64.852 C 279.934 59.659,281.367 51.536,278.991 46.572 C 278.813 46.200,278.667 45.825,278.666 45.739 C 278.666 45.653,278.232 45.004,277.701 44.295 C 275.621 41.519,273.154 40.410,270.367 41.000 M88.167 42.187 C 76.757 44.456,78.450 61.139,90.083 61.072 C 101.712 61.004,103.241 44.389,91.823 42.172 C 90.866 41.986,90.008 41.843,89.917 41.853 C 89.825 41.864,89.037 42.014,88.167 42.187 M48.935 42.351 C 45.286 42.883,41.936 46.556,41.501 50.500 C 41.114 54.010,41.905 55.888,45.529 60.070 C 52.142 67.702,51.900 75.032,44.775 82.973 C 43.657 84.219,42.303 86.147,42.122 86.750 C 42.067 86.933,41.898 87.421,41.747 87.833 C 41.551 88.371,41.474 89.126,41.477 90.500 C 41.494 99.020,51.624 103.171,57.931 97.242 C 59.766 95.517,59.994 95.330,61.500 94.324 C 62.920 93.376,65.467 92.000,65.803 92.000 C 65.887 92.000,66.435 91.846,67.020 91.657 C 71.488 90.218,77.697 92.253,82.333 96.677 C 86.926 101.060,93.631 101.105,97.107 96.777 C 104.894 87.079,91.956 75.272,82.850 83.765 C 74.627 91.436,66.037 91.563,58.457 84.126 C 50.129 75.954,49.632 67.391,57.030 59.492 C 60.790 55.477,61.672 51.588,59.728 47.583 C 57.743 43.492,53.895 41.627,48.935 42.351 M192.656 43.989 C 193.311 44.658,194.166 46.236,194.168 46.781 C 194.168 46.947,194.287 47.308,194.431 47.583 C 194.677 48.051,195.105 49.948,195.289 51.382 C 195.333 51.729,195.288 52.339,195.187 52.736 C 195.087 53.134,194.930 54.613,194.838 56.022 C 194.747 57.431,194.597 58.846,194.506 59.167 C 194.415 59.487,194.270 60.875,194.182 62.250 C 194.095 63.625,193.947 64.951,193.854 65.197 C 193.760 65.443,193.638 66.418,193.581 67.364 C 193.525 68.310,193.370 69.661,193.236 70.367 C 193.102 71.074,192.925 72.536,192.843 73.617 C 192.760 74.699,192.616 75.783,192.523 76.026 C 192.430 76.270,192.305 77.133,192.246 77.943 C 192.187 78.754,192.038 79.792,191.914 80.250 C 191.791 80.708,191.640 81.721,191.579 82.500 C 191.518 83.279,191.368 84.329,191.246 84.833 C 191.124 85.337,190.971 86.275,190.906 86.917 C 190.841 87.558,190.694 88.348,190.581 88.670 C 190.468 88.993,190.323 89.743,190.259 90.337 C 190.196 90.931,190.042 91.754,189.917 92.167 C 189.792 92.579,189.637 93.402,189.574 93.996 C 189.510 94.590,189.354 95.373,189.226 95.735 C 188.958 96.495,188.732 99.574,188.896 100.229 C 189.086 100.986,190.689 102.169,191.865 102.420 C 192.168 102.485,192.604 102.637,192.833 102.757 C 193.237 102.969,196.283 103.385,198.833 103.577 C 199.521 103.628,200.908 103.595,201.917 103.503 C 202.925 103.410,205.175 103.259,206.917 103.167 C 208.658 103.076,210.908 102.891,211.917 102.758 C 212.925 102.624,214.762 102.467,216.000 102.408 C 217.237 102.348,218.625 102.230,219.083 102.145 C 219.542 102.059,221.081 101.915,222.504 101.825 C 225.059 101.662,225.919 101.441,226.894 100.699 C 227.243 100.433,229.074 99.857,229.917 99.748 C 230.375 99.688,231.088 99.541,231.500 99.420 C 231.912 99.298,232.775 99.123,233.417 99.030 C 234.058 98.936,234.958 98.784,235.417 98.691 C 235.875 98.598,236.662 98.446,237.167 98.352 C 238.909 98.031,240.163 97.698,240.872 97.370 C 241.263 97.188,241.696 96.992,241.833 96.933 C 241.971 96.875,242.383 96.648,242.750 96.429 C 245.371 94.868,247.751 94.551,248.065 95.722 C 248.521 97.421,248.109 98.515,246.487 99.917 C 244.889 101.297,244.291 101.827,242.837 103.148 C 241.968 103.937,240.369 105.446,239.284 106.500 C 236.777 108.934,236.700 108.977,235.598 108.524 C 234.256 107.972,226.625 107.435,222.517 107.603 C 221.729 107.636,218.458 107.742,215.250 107.839 C 210.022 107.998,207.109 108.142,198.333 108.678 C 188.690 109.267,184.939 109.100,182.565 107.979 C 179.872 106.707,179.692 105.612,181.147 99.333 C 181.378 98.336,181.874 96.134,182.329 94.083 C 182.533 93.167,182.839 91.817,183.009 91.083 C 183.180 90.350,183.470 89.075,183.654 88.250 C 183.838 87.425,184.140 86.075,184.326 85.250 C 184.511 84.425,184.967 82.325,185.339 80.583 C 185.710 78.842,186.121 77.004,186.251 76.500 C 186.506 75.512,187.079 72.552,187.250 71.333 C 187.309 70.921,187.463 70.021,187.594 69.333 C 187.894 67.759,188.300 64.891,188.513 62.833 C 188.603 61.962,188.749 60.837,188.836 60.333 C 189.054 59.075,189.355 51.025,189.310 47.651 C 189.276 45.038,189.295 44.852,189.650 44.277 C 190.400 43.063,191.632 42.945,192.656 43.989 M297.614 50.458 C 298.621 51.348,298.573 50.445,298.669 70.500 L 298.757 88.917 299.149 89.833 C 299.365 90.337,299.607 90.862,299.688 91.000 C 299.768 91.138,299.901 91.404,299.984 91.592 C 301.333 94.676,305.598 95.896,308.465 94.018 C 309.744 93.181,310.753 92.437,311.083 92.088 C 312.049 91.069,313.689 88.965,314.185 88.110 C 314.496 87.575,314.880 86.938,315.039 86.694 C 315.669 85.726,317.849 81.124,318.485 79.417 C 318.691 78.867,318.997 78.079,319.166 77.667 C 319.335 77.254,319.784 76.092,320.163 75.083 C 320.542 74.075,320.992 72.912,321.163 72.500 C 321.334 72.087,321.786 70.850,322.167 69.750 C 322.548 68.650,322.937 67.563,323.030 67.333 C 323.123 67.104,323.423 66.242,323.696 65.417 C 324.395 63.306,325.552 60.429,326.176 59.250 C 327.503 56.739,328.139 56.954,330.733 60.791 C 331.295 61.623,331.387 62.611,331.650 70.667 C 331.736 73.284,331.887 75.628,331.987 75.888 C 332.087 76.148,332.243 77.405,332.335 78.683 C 332.426 79.961,332.608 81.437,332.740 81.962 C 332.872 82.487,333.054 83.329,333.145 83.833 C 333.236 84.337,333.395 85.125,333.498 85.583 C 333.835 87.080,334.017 87.901,334.238 88.917 C 334.476 90.011,335.046 91.783,335.425 92.609 C 335.558 92.897,335.667 93.197,335.668 93.275 C 335.672 93.572,337.134 96.331,337.720 97.147 C 338.057 97.616,338.333 98.037,338.333 98.081 C 338.333 98.506,340.978 100.666,342.197 101.237 C 343.869 102.020,347.469 102.122,348.818 101.425 C 349.092 101.283,349.415 101.167,349.535 101.167 C 350.250 101.167,353.784 99.065,354.833 98.016 C 355.746 97.103,355.829 96.775,355.831 94.056 C 355.834 91.054,356.596 89.562,358.381 89.056 C 360.705 88.399,362.842 89.914,363.356 92.583 C 363.444 93.042,363.560 93.628,363.612 93.886 C 363.712 94.375,367.314 98.120,369.574 100.083 C 370.206 100.633,370.918 101.263,371.154 101.482 C 377.045 106.946,383.334 107.170,385.882 102.005 L 386.583 100.583 386.572 98.083 C 386.558 95.140,386.226 93.864,384.815 91.333 C 384.489 90.749,383.284 88.934,383.155 88.833 C 383.096 88.787,382.653 88.274,382.170 87.691 C 381.688 87.109,378.469 83.809,375.017 80.358 C 371.566 76.907,368.517 73.821,368.242 73.500 C 366.868 71.898,366.169 71.002,365.639 70.167 C 365.320 69.662,364.916 69.025,364.742 68.750 C 362.047 64.488,362.009 58.708,364.652 55.242 C 365.925 53.573,367.895 51.846,368.547 51.828 C 368.659 51.825,369.050 51.677,369.417 51.500 C 372.240 50.136,380.347 52.381,383.863 55.500 C 384.018 55.637,384.431 55.972,384.781 56.242 C 390.836 60.929,389.863 69.002,383.528 66.632 C 382.084 66.091,381.138 65.009,379.765 62.324 C 376.810 56.546,374.690 55.331,370.705 57.134 C 368.334 58.206,367.256 60.535,368.249 62.439 C 368.386 62.702,368.501 63.029,368.504 63.167 C 368.508 63.304,368.695 63.792,368.920 64.250 C 369.146 64.708,369.331 65.171,369.332 65.278 C 369.333 65.385,369.390 65.497,369.458 65.528 C 369.574 65.579,369.833 65.956,370.986 67.750 C 371.371 68.348,372.238 69.513,372.790 70.172 C 372.903 70.306,373.278 70.753,373.623 71.165 C 373.968 71.577,374.785 72.477,375.440 73.165 C 376.094 73.853,377.031 74.857,377.523 75.394 C 378.014 75.932,380.635 78.594,383.346 81.311 C 388.808 86.784,389.068 87.083,389.823 88.750 C 390.113 89.392,390.457 90.142,390.586 90.417 C 390.716 90.692,390.869 91.142,390.927 91.417 C 390.984 91.692,391.131 92.142,391.252 92.417 C 391.373 92.692,391.524 93.217,391.587 93.583 C 391.650 93.950,391.818 94.587,391.961 95.000 C 392.350 96.123,392.360 101.952,391.974 103.000 C 391.822 103.412,391.656 103.943,391.603 104.179 C 391.495 104.668,390.020 107.333,389.857 107.334 C 389.798 107.335,389.525 107.541,389.250 107.792 C 387.210 109.659,383.840 110.481,379.025 110.287 C 376.310 110.177,375.724 110.015,372.885 108.583 C 368.109 106.175,365.430 104.413,363.580 102.465 C 362.423 101.245,362.260 101.127,362.098 101.394 C 361.998 101.560,361.785 101.850,361.625 102.040 C 361.465 102.229,361.333 102.459,361.333 102.549 C 361.333 102.727,360.250 104.030,359.254 105.049 C 358.718 105.598,358.287 105.920,356.981 106.747 C 351.040 110.510,341.796 109.804,336.908 105.213 C 336.142 104.494,334.000 101.935,334.000 101.740 C 334.000 101.668,333.894 101.491,333.764 101.346 C 333.635 101.202,333.103 100.258,332.582 99.250 C 332.061 98.242,331.458 97.079,331.242 96.667 C 330.597 95.433,328.536 89.992,327.990 88.083 C 327.832 87.533,327.313 85.696,326.835 84.000 C 325.513 79.304,325.545 79.348,324.684 81.035 C 324.390 81.612,324.006 82.308,323.830 82.583 C 323.654 82.858,323.387 83.301,323.237 83.568 C 323.087 83.834,322.896 84.134,322.811 84.234 C 322.727 84.335,322.418 84.792,322.124 85.250 C 321.830 85.708,321.530 86.158,321.457 86.250 C 321.384 86.342,320.865 87.054,320.304 87.833 C 317.626 91.553,314.055 95.393,310.917 97.929 C 309.941 98.718,307.745 100.167,307.526 100.167 C 307.442 100.167,307.289 100.270,307.184 100.395 C 306.949 100.679,305.518 101.203,303.710 101.668 C 300.328 102.538,297.003 100.798,295.250 97.241 C 294.837 96.404,294.500 95.592,294.500 95.435 C 294.500 95.278,294.390 94.937,294.255 94.676 C 294.120 94.415,293.962 93.875,293.904 93.476 C 293.846 93.077,293.692 92.375,293.561 91.917 C 293.390 91.319,293.276 89.336,293.159 84.917 C 293.070 81.525,292.922 77.737,292.832 76.500 C 292.742 75.262,292.668 69.275,292.667 63.195 L 292.667 52.139 293.522 51.328 C 293.992 50.882,294.591 50.470,294.853 50.412 C 295.115 50.355,295.372 50.238,295.425 50.154 C 295.650 49.790,297.083 49.989,297.614 50.458 " stroke="none" fill="#fbfbfb" fill-rule="evenodd"></path><path id="path3" d="M2.667 2.455 C 2.438 2.497,2.156 2.609,2.042 2.703 C 1.773 2.924,1.731 139.333,2.000 139.333 C 2.111 139.333,2.167 116.479,2.167 71.104 L 2.167 2.875 2.688 2.771 C 3.872 2.534,138.450 2.655,138.647 2.893 C 138.786 3.061,138.824 20.842,138.793 71.227 C 138.759 125.624,138.792 139.333,138.958 139.333 C 139.125 139.333,139.167 125.574,139.167 71.093 L 139.167 2.852 138.796 2.593 C 138.440 2.343,4.013 2.208,2.667 2.455 M269.750 35.264 C 265.633 35.955,261.492 39.023,258.484 43.613 C 256.707 46.325,256.700 46.336,256.491 46.833 C 256.395 47.063,256.170 47.569,255.991 47.958 C 255.813 48.348,255.511 49.023,255.320 49.458 C 255.130 49.894,254.871 50.444,254.744 50.680 C 254.618 50.917,254.440 51.404,254.350 51.764 C 254.260 52.123,254.065 52.792,253.918 53.250 C 253.771 53.708,253.542 54.421,253.410 54.833 C 252.979 56.174,252.526 58.104,252.349 59.357 C 252.253 60.032,252.096 60.846,251.999 61.167 C 251.431 63.051,251.428 72.068,251.994 74.583 C 252.159 75.317,252.344 76.201,252.406 76.549 C 252.700 78.208,254.426 81.310,255.581 82.257 C 258.402 84.568,261.724 84.340,265.899 81.549 C 267.177 80.694,271.380 76.670,272.127 75.587 C 274.405 72.277,279.526 66.417,280.138 66.417 C 280.771 66.417,279.829 74.056,278.326 81.115 C 278.147 81.957,278.000 82.819,278.000 83.030 C 278.000 83.241,277.852 84.127,277.671 84.998 C 277.364 86.477,277.215 87.243,276.318 91.958 C 276.130 92.943,275.868 94.313,275.734 95.000 C 275.601 95.688,275.427 96.662,275.348 97.167 C 275.058 99.009,274.649 101.449,274.408 102.761 C 273.443 108.025,274.598 110.186,277.927 109.348 C 280.488 108.703,284.208 103.876,286.769 97.875 C 286.896 97.577,287.113 97.090,287.251 96.792 C 288.920 93.187,286.605 91.876,283.291 94.549 C 282.164 95.457,282.120 95.209,282.742 91.500 C 282.872 90.721,283.059 89.540,283.156 88.875 C 283.599 85.855,283.714 85.157,284.004 83.750 C 284.175 82.925,284.357 81.811,284.410 81.274 C 284.464 80.737,284.577 80.167,284.663 80.007 C 284.749 79.846,284.866 79.198,284.924 78.566 C 284.981 77.934,285.136 77.025,285.268 76.545 C 285.399 76.066,285.577 74.941,285.663 74.045 C 285.749 73.150,285.895 72.192,285.987 71.917 C 286.079 71.642,286.228 70.587,286.319 69.574 C 286.410 68.560,286.566 67.515,286.666 67.251 C 286.767 66.987,286.919 65.229,287.005 63.344 C 287.091 61.459,287.237 59.279,287.329 58.500 C 287.543 56.697,287.545 53.975,287.332 52.208 C 287.241 51.452,287.094 50.222,287.004 49.474 C 286.817 47.904,286.251 45.533,285.906 44.872 C 285.776 44.621,285.668 44.318,285.668 44.198 C 285.667 43.954,284.838 42.130,284.670 42.000 C 284.610 41.954,284.323 41.496,284.031 40.981 C 283.578 40.180,283.015 39.559,281.141 37.790 C 279.056 35.822,273.616 34.616,269.750 35.264 M274.191 35.491 C 281.376 36.247,285.917 41.656,286.852 50.571 C 287.187 53.763,286.955 64.212,286.505 66.232 C 286.421 66.609,286.233 67.883,286.088 69.065 C 285.943 70.247,285.795 71.261,285.759 71.319 C 285.723 71.377,285.611 72.173,285.510 73.088 C 285.409 74.002,285.219 75.313,285.088 76.000 C 284.585 78.624,283.800 83.060,283.184 86.750 C 281.779 95.175,281.785 96.368,283.223 95.043 C 285.255 93.169,287.647 92.992,287.531 94.723 C 287.492 95.297,286.777 97.408,286.506 97.750 C 286.433 97.842,286.129 98.479,285.831 99.167 C 283.436 104.681,279.414 109.167,276.863 109.167 C 274.715 109.167,273.955 107.475,274.569 104.060 C 274.699 103.340,274.851 102.337,274.908 101.833 C 274.966 101.329,275.119 100.354,275.249 99.667 C 275.697 97.294,276.042 95.413,276.255 94.167 C 276.373 93.479,276.622 92.129,276.807 91.167 C 276.993 90.204,277.294 88.592,277.478 87.583 C 277.661 86.575,277.887 85.375,277.981 84.917 C 278.074 84.458,278.305 83.240,278.492 82.208 C 278.680 81.177,278.980 79.527,279.160 78.542 C 279.340 77.556,279.636 75.850,279.818 74.750 C 280.127 72.881,280.248 72.051,280.682 68.813 C 280.956 66.768,280.844 65.740,280.353 65.794 C 279.564 65.880,276.716 69.059,272.755 74.273 C 271.456 75.984,267.711 79.806,266.333 80.828 C 260.272 85.325,255.759 84.220,253.082 77.583 C 251.164 72.830,251.507 62.154,253.821 54.625 C 254.011 54.006,254.306 53.031,254.475 52.458 C 255.728 48.231,259.220 42.370,262.082 39.692 C 265.743 36.268,269.428 34.990,274.191 35.491 M270.500 40.645 C 265.023 41.885,259.373 50.602,256.579 62.122 C 256.441 62.693,256.253 63.357,256.161 63.597 C 254.519 67.918,255.965 74.404,258.886 75.819 C 262.391 77.515,272.170 70.893,277.198 63.417 C 282.804 55.083,280.785 42.862,273.443 40.686 C 272.059 40.276,272.129 40.277,270.500 40.645 M274.264 41.302 C 275.827 42.109,278.665 44.970,278.666 45.739 C 278.667 45.825,278.813 46.200,278.991 46.572 C 281.367 51.536,279.934 59.659,275.766 64.852 C 275.574 65.091,275.304 65.456,275.167 65.662 C 274.085 67.287,271.996 69.328,269.643 71.060 C 268.693 71.759,267.842 72.390,267.750 72.463 C 267.384 72.754,263.989 74.648,263.632 74.760 C 263.422 74.826,262.989 75.019,262.669 75.190 C 262.350 75.360,261.946 75.500,261.772 75.500 C 261.598 75.500,261.169 75.586,260.819 75.691 C 258.749 76.311,256.384 73.689,255.963 70.308 C 255.761 68.686,256.007 64.476,256.327 64.091 C 256.428 63.970,256.592 63.393,256.693 62.810 C 256.793 62.227,256.942 61.667,257.022 61.565 C 257.103 61.463,257.251 60.941,257.350 60.405 C 257.449 59.869,257.636 59.280,257.765 59.095 C 257.894 58.910,258.003 58.607,258.006 58.421 C 258.009 58.235,258.156 57.783,258.333 57.417 C 258.510 57.050,258.660 56.637,258.667 56.500 C 258.673 56.362,258.823 55.950,259.000 55.583 C 259.177 55.217,259.325 54.825,259.328 54.713 C 259.331 54.601,259.494 54.151,259.690 53.713 C 259.886 53.275,260.168 52.625,260.315 52.269 C 263.729 44.030,270.000 39.100,274.264 41.302 M87.667 41.772 C 80.778 43.360,77.584 52.014,81.881 57.449 C 86.289 63.026,94.077 63.051,98.123 57.500 C 103.696 49.854,96.907 39.642,87.667 41.772 M48.784 41.926 C 42.575 42.972,39.006 50.677,42.111 56.333 C 42.683 57.375,43.474 58.428,44.614 59.667 C 51.267 66.890,51.549 74.344,45.440 81.500 C 43.181 84.146,42.667 84.815,42.109 85.833 C 39.884 89.900,41.044 95.482,44.699 98.296 C 48.943 101.562,54.455 101.144,58.576 97.242 C 66.286 89.943,74.568 89.900,82.167 97.119 C 88.962 103.574,99.411 99.975,99.956 90.993 C 100.518 81.720,89.481 77.000,82.439 83.502 C 78.195 87.420,74.489 89.167,70.417 89.167 C 61.169 89.167,51.048 77.996,52.428 69.313 C 52.994 65.753,54.245 63.390,57.590 59.563 C 60.914 55.759,61.895 52.565,60.815 49.059 C 59.143 43.634,54.608 40.946,48.784 41.926 M91.823 42.172 C 103.241 44.389,101.712 61.004,90.083 61.072 C 81.219 61.123,77.039 50.507,83.520 44.406 C 84.907 43.099,87.286 42.150,89.917 41.853 C 90.008 41.843,90.866 41.986,91.823 42.172 M52.917 42.341 C 58.111 43.089,61.753 48.788,60.405 54.059 C 59.965 55.778,58.895 57.500,57.030 59.492 C 49.632 67.391,50.129 75.954,58.457 84.126 C 66.037 91.563,74.627 91.436,82.850 83.765 C 90.007 77.090,101.447 83.237,99.259 92.582 C 97.456 100.282,88.406 102.471,82.333 96.677 C 77.697 92.253,71.488 90.218,67.020 91.657 C 66.435 91.846,65.887 92.000,65.803 92.000 C 65.467 92.000,62.920 93.376,61.500 94.324 C 59.994 95.330,59.766 95.517,57.931 97.242 C 51.624 103.171,41.494 99.020,41.477 90.500 C 41.474 89.126,41.551 88.371,41.747 87.833 C 41.898 87.421,42.067 86.933,42.122 86.750 C 42.303 86.147,43.657 84.219,44.775 82.973 C 51.900 75.032,52.142 67.702,45.529 60.070 C 42.602 56.693,41.749 55.198,41.506 53.028 C 40.746 46.223,45.960 41.340,52.917 42.341 M190.305 43.506 C 189.441 44.010,189.272 44.715,189.310 47.651 C 189.355 51.025,189.054 59.075,188.836 60.333 C 188.749 60.837,188.603 61.962,188.513 62.833 C 188.300 64.891,187.894 67.759,187.594 69.333 C 187.463 70.021,187.309 70.921,187.250 71.333 C 187.079 72.552,186.506 75.512,186.251 76.500 C 186.121 77.004,185.710 78.842,185.339 80.583 C 184.967 82.325,184.511 84.425,184.326 85.250 C 184.140 86.075,183.838 87.425,183.654 88.250 C 183.470 89.075,183.180 90.350,183.009 91.083 C 182.839 91.817,182.533 93.167,182.329 94.083 C 181.874 96.134,181.378 98.336,181.147 99.333 C 179.692 105.612,179.872 106.707,182.565 107.979 C 184.939 109.100,188.690 109.267,198.333 108.678 C 207.109 108.142,210.022 107.998,215.250 107.839 C 218.458 107.742,221.729 107.636,222.517 107.603 C 226.625 107.435,234.256 107.972,235.598 108.524 C 236.700 108.977,236.777 108.934,239.284 106.500 C 240.369 105.446,241.968 103.937,242.837 103.148 C 244.291 101.827,244.889 101.297,246.487 99.917 C 248.109 98.515,248.521 97.421,248.065 95.722 C 247.751 94.551,245.371 94.868,242.750 96.429 C 242.383 96.648,241.971 96.875,241.833 96.933 C 241.696 96.992,241.263 97.188,240.872 97.370 C 240.163 97.698,238.909 98.031,237.167 98.352 C 236.662 98.446,235.875 98.598,235.417 98.691 C 234.958 98.784,234.058 98.936,233.417 99.030 C 232.775 99.123,231.912 99.298,231.500 99.420 C 231.088 99.541,230.375 99.688,229.917 99.748 C 229.074 99.857,227.243 100.433,226.894 100.699 C 225.919 101.441,225.059 101.662,222.504 101.825 C 221.081 101.915,219.542 102.059,219.083 102.145 C 218.625 102.230,217.237 102.348,216.000 102.408 C 214.762 102.467,212.925 102.624,211.917 102.758 C 210.908 102.891,208.658 103.076,206.917 103.167 C 205.175 103.259,202.925 103.410,201.917 103.503 C 200.908 103.595,199.521 103.628,198.833 103.577 C 196.283 103.385,193.237 102.969,192.833 102.757 C 192.604 102.637,192.168 102.485,191.865 102.420 C 190.689 102.169,189.086 100.986,188.896 100.229 C 188.732 99.574,188.958 96.495,189.226 95.735 C 189.354 95.373,189.510 94.590,189.574 93.996 C 189.637 93.402,189.792 92.579,189.917 92.167 C 190.042 91.754,190.196 90.931,190.259 90.337 C 190.323 89.743,190.468 88.993,190.581 88.670 C 190.694 88.348,190.841 87.558,190.906 86.917 C 190.971 86.275,191.124 85.337,191.246 84.833 C 191.368 84.329,191.518 83.279,191.579 82.500 C 191.640 81.721,191.791 80.708,191.914 80.250 C 192.038 79.792,192.187 78.754,192.246 77.943 C 192.305 77.133,192.430 76.270,192.523 76.026 C 192.616 75.783,192.760 74.699,192.843 73.617 C 192.925 72.536,193.102 71.074,193.236 70.367 C 193.370 69.661,193.525 68.310,193.581 67.364 C 193.638 66.418,193.760 65.443,193.854 65.197 C 193.947 64.951,194.095 63.625,194.182 62.250 C 194.270 60.875,194.415 59.487,194.506 59.167 C 194.597 58.846,194.747 57.431,194.838 56.022 C 194.930 54.613,195.087 53.134,195.187 52.736 C 195.288 52.339,195.333 51.729,195.289 51.382 C 195.105 49.948,194.677 48.051,194.431 47.583 C 194.287 47.308,194.168 46.947,194.168 46.781 C 194.166 46.236,193.311 44.658,192.656 43.989 C 191.983 43.302,191.000 43.100,190.305 43.506 M192.453 44.206 C 194.595 46.266,195.220 50.400,194.413 57.167 C 194.276 58.313,194.089 60.150,193.996 61.250 C 193.903 62.350,193.752 63.700,193.661 64.250 C 193.570 64.800,193.429 65.962,193.348 66.833 C 193.082 69.668,192.212 76.414,191.747 79.250 C 191.611 80.075,191.421 81.419,191.325 82.238 C 191.229 83.056,191.121 83.773,191.085 83.830 C 191.049 83.888,190.905 84.817,190.763 85.895 C 190.622 86.973,190.469 87.915,190.424 87.988 C 190.379 88.061,190.231 88.787,190.094 89.602 C 189.864 90.978,189.734 91.668,189.082 95.000 C 188.286 99.064,188.285 99.081,188.562 100.034 C 189.032 101.651,190.955 102.817,194.000 103.332 C 194.596 103.433,195.570 103.595,196.165 103.693 C 198.230 104.034,205.617 103.708,213.583 102.924 C 214.958 102.789,216.796 102.633,217.667 102.578 C 218.537 102.523,219.850 102.410,220.583 102.326 C 221.317 102.243,222.737 102.098,223.739 102.005 C 225.352 101.855,225.670 101.771,226.509 101.271 C 227.874 100.458,229.237 100.111,235.417 99.001 C 239.653 98.239,240.335 98.026,242.996 96.632 C 245.506 95.317,246.957 94.980,247.551 95.575 C 248.178 96.202,247.819 98.474,247.002 99.046 C 246.819 99.175,246.051 99.835,245.296 100.515 C 244.540 101.194,243.172 102.425,242.255 103.250 C 241.338 104.075,239.716 105.594,238.651 106.625 C 236.564 108.646,236.578 108.638,235.783 108.218 C 233.563 107.045,216.236 107.019,200.667 108.165 C 196.139 108.498,190.716 108.696,187.770 108.635 L 184.750 108.573 183.285 107.931 C 180.387 106.659,180.004 105.268,181.219 100.417 C 181.662 98.651,181.866 97.783,182.200 96.250 C 182.379 95.425,182.672 94.112,182.851 93.333 C 183.030 92.554,183.283 91.372,183.413 90.706 C 183.544 90.039,183.687 89.435,183.732 89.363 C 183.820 89.221,184.387 86.650,184.749 84.750 C 184.872 84.108,185.044 83.396,185.132 83.167 C 185.220 82.938,185.348 82.337,185.417 81.833 C 185.485 81.329,185.613 80.729,185.701 80.500 C 185.789 80.271,185.960 79.558,186.081 78.917 C 186.202 78.275,186.499 76.850,186.741 75.750 C 186.982 74.650,187.252 73.300,187.339 72.750 C 187.427 72.200,187.609 71.150,187.745 70.417 C 188.177 68.082,188.650 64.955,188.754 63.750 C 188.809 63.108,188.957 61.908,189.082 61.083 C 189.357 59.272,189.708 50.854,189.649 47.500 C 189.584 43.799,190.685 42.505,192.453 44.206 M295.425 50.154 C 295.372 50.238,295.115 50.355,294.853 50.412 C 294.591 50.470,293.992 50.882,293.522 51.328 L 292.667 52.139 292.667 63.195 C 292.668 69.275,292.742 75.262,292.832 76.500 C 292.922 77.737,293.070 81.525,293.159 84.917 C 293.276 89.336,293.390 91.319,293.561 91.917 C 293.692 92.375,293.846 93.077,293.904 93.476 C 293.962 93.875,294.120 94.415,294.255 94.676 C 294.390 94.937,294.500 95.278,294.500 95.435 C 294.500 95.592,294.837 96.404,295.250 97.241 C 297.003 100.798,300.328 102.538,303.710 101.668 C 305.518 101.203,306.949 100.679,307.184 100.395 C 307.289 100.270,307.442 100.167,307.526 100.167 C 307.745 100.167,309.941 98.718,310.917 97.929 C 314.055 95.393,317.626 91.553,320.304 87.833 C 320.865 87.054,321.384 86.342,321.457 86.250 C 321.530 86.158,321.830 85.708,322.124 85.250 C 322.418 84.792,322.727 84.335,322.811 84.234 C 322.896 84.134,323.087 83.834,323.237 83.568 C 323.387 83.301,323.654 82.858,323.830 82.583 C 324.006 82.308,324.390 81.612,324.684 81.035 C 325.545 79.348,325.513 79.304,326.835 84.000 C 327.313 85.696,327.832 87.533,327.990 88.083 C 328.536 89.992,330.597 95.433,331.242 96.667 C 331.458 97.079,332.061 98.242,332.582 99.250 C 333.103 100.258,333.635 101.202,333.764 101.346 C 333.894 101.491,334.000 101.668,334.000 101.740 C 334.000 101.935,336.142 104.494,336.908 105.213 C 341.796 109.804,351.040 110.510,356.981 106.747 C 358.287 105.920,358.718 105.598,359.254 105.049 C 360.250 104.030,361.333 102.727,361.333 102.549 C 361.333 102.459,361.465 102.229,361.625 102.040 C 361.785 101.850,361.998 101.560,362.098 101.394 C 362.260 101.127,362.423 101.245,363.580 102.465 C 365.430 104.413,368.109 106.175,372.885 108.583 C 375.724 110.015,376.310 110.177,379.025 110.287 C 383.840 110.481,387.210 109.659,389.250 107.792 C 389.525 107.541,389.798 107.335,389.857 107.334 C 390.020 107.333,391.495 104.668,391.603 104.179 C 391.656 103.943,391.822 103.412,391.974 103.000 C 392.360 101.952,392.350 96.123,391.961 95.000 C 391.818 94.587,391.650 93.950,391.587 93.583 C 391.524 93.217,391.373 92.692,391.252 92.417 C 391.131 92.142,390.984 91.692,390.927 91.417 C 390.869 91.142,390.716 90.692,390.586 90.417 C 390.457 90.142,390.113 89.392,389.823 88.750 C 389.068 87.083,388.808 86.784,383.346 81.311 C 380.635 78.594,378.014 75.932,377.523 75.394 C 377.031 74.857,376.094 73.853,375.440 73.165 C 374.785 72.477,373.968 71.577,373.623 71.165 C 373.278 70.753,372.903 70.306,372.790 70.172 C 372.238 69.513,371.371 68.348,370.986 67.750 C 369.833 65.956,369.574 65.579,369.458 65.528 C 369.390 65.497,369.333 65.385,369.332 65.278 C 369.331 65.171,369.146 64.708,368.920 64.250 C 368.695 63.792,368.508 63.304,368.504 63.167 C 368.501 63.029,368.386 62.702,368.249 62.439 C 367.256 60.535,368.334 58.206,370.705 57.134 C 374.690 55.331,376.810 56.546,379.765 62.324 C 381.742 66.189,384.371 67.922,386.751 66.927 C 390.248 65.466,389.175 59.644,384.781 56.242 C 384.431 55.972,384.018 55.637,383.863 55.500 C 380.347 52.381,372.240 50.136,369.417 51.500 C 369.050 51.677,368.659 51.825,368.547 51.828 C 367.895 51.846,365.925 53.573,364.652 55.242 C 362.009 58.708,362.047 64.488,364.742 68.750 C 364.916 69.025,365.320 69.662,365.639 70.167 C 366.169 71.002,366.868 71.898,368.242 73.500 C 368.517 73.821,371.566 76.907,375.017 80.358 C 378.469 83.809,381.688 87.109,382.170 87.691 C 382.653 88.274,383.096 88.787,383.155 88.833 C 383.284 88.934,384.489 90.749,384.815 91.333 C 386.226 93.864,386.558 95.140,386.572 98.083 L 386.583 100.583 385.882 102.005 C 383.334 107.170,377.045 106.946,371.154 101.482 C 370.918 101.263,370.206 100.633,369.574 100.083 C 367.314 98.120,363.712 94.375,363.612 93.886 C 363.560 93.628,363.444 93.042,363.356 92.583 C 362.842 89.914,360.705 88.399,358.381 89.056 C 356.596 89.562,355.834 91.054,355.831 94.056 C 355.829 96.775,355.746 97.103,354.833 98.016 C 353.784 99.065,350.250 101.167,349.535 101.167 C 349.415 101.167,349.092 101.283,348.818 101.425 C 347.469 102.122,343.869 102.020,342.197 101.237 C 340.978 100.666,338.333 98.506,338.333 98.081 C 338.333 98.037,338.057 97.616,337.720 97.147 C 337.134 96.331,335.672 93.572,335.668 93.275 C 335.667 93.197,335.558 92.897,335.425 92.609 C 335.046 91.783,334.476 90.011,334.238 88.917 C 334.017 87.901,333.835 87.080,333.498 85.583 C 333.395 85.125,333.236 84.337,333.145 83.833 C 333.054 83.329,332.872 82.487,332.740 81.962 C 332.608 81.437,332.426 79.961,332.335 78.683 C 332.243 77.405,332.087 76.148,331.987 75.888 C 331.887 75.628,331.736 73.284,331.650 70.667 C 331.387 62.611,331.295 61.623,330.733 60.791 C 328.139 56.954,327.503 56.739,326.176 59.250 C 325.552 60.429,324.395 63.306,323.696 65.417 C 323.423 66.242,323.123 67.104,323.030 67.333 C 322.937 67.563,322.548 68.650,322.167 69.750 C 321.786 70.850,321.334 72.087,321.163 72.500 C 320.992 72.912,320.542 74.075,320.163 75.083 C 319.784 76.092,319.335 77.254,319.166 77.667 C 318.997 78.079,318.691 78.867,318.485 79.417 C 317.849 81.124,315.669 85.726,315.039 86.694 C 314.880 86.938,314.496 87.575,314.185 88.110 C 313.689 88.965,312.049 91.069,311.083 92.088 C 310.753 92.437,309.744 93.181,308.465 94.018 C 305.598 95.896,301.333 94.676,299.984 91.592 C 299.901 91.404,299.768 91.138,299.688 91.000 C 299.607 90.862,299.365 90.337,299.149 89.833 L 298.757 88.917 298.669 70.500 C 298.573 50.445,298.621 51.348,297.614 50.458 C 297.083 49.989,295.650 49.790,295.425 50.154 M297.352 50.621 C 298.245 51.148,298.224 50.730,298.336 70.250 C 298.450 90.181,298.381 88.969,299.545 91.333 C 300.868 94.022,302.662 95.229,305.333 95.229 C 309.841 95.229,314.944 89.394,318.579 80.083 C 318.830 79.442,319.370 78.054,319.780 77.000 C 320.189 75.946,320.632 74.847,320.762 74.558 C 320.893 74.269,321.000 73.969,321.001 73.891 C 321.001 73.814,321.214 73.225,321.473 72.583 C 321.733 71.942,322.218 70.629,322.552 69.667 C 322.886 68.704,323.352 67.392,323.588 66.750 C 323.825 66.108,324.098 65.321,324.195 65.000 C 325.533 60.576,327.385 57.380,328.192 58.103 C 330.174 59.879,330.999 61.577,331.002 63.886 C 331.006 66.867,331.543 75.363,331.831 77.000 C 331.920 77.504,332.072 78.775,332.169 79.823 C 332.266 80.872,332.451 82.185,332.580 82.740 C 332.709 83.296,332.972 84.500,333.166 85.417 C 334.181 90.238,334.869 92.429,336.218 95.141 C 340.127 102.996,346.562 104.406,354.113 99.063 C 355.956 97.758,356.189 97.225,356.252 94.167 C 356.320 90.859,356.904 89.651,358.583 89.345 C 361.000 88.904,362.752 90.370,363.176 93.189 L 363.360 94.417 365.389 96.476 C 372.303 103.498,376.207 106.024,380.188 106.054 C 386.692 106.102,389.212 97.956,384.899 90.830 C 383.592 88.670,382.367 87.316,375.105 80.000 C 371.328 76.196,367.820 72.558,367.308 71.917 C 361.804 65.020,361.549 58.199,366.617 53.476 C 370.808 49.571,380.471 51.773,386.029 57.900 C 389.697 61.944,389.431 66.584,385.530 66.583 C 382.910 66.583,381.867 65.705,379.851 61.799 C 377.048 56.369,375.348 55.292,371.475 56.493 C 367.837 57.621,366.844 60.068,368.476 63.883 C 370.239 68.004,372.704 70.998,382.360 80.750 C 388.685 87.139,388.834 87.307,389.572 88.917 C 393.552 97.601,392.632 106.049,387.417 108.707 C 384.942 109.968,377.886 110.413,375.500 109.459 C 370.734 107.553,364.209 103.283,363.042 101.308 C 362.833 100.954,362.156 100.536,362.084 100.715 C 362.076 100.734,361.866 101.067,361.618 101.455 C 361.370 101.842,361.167 102.218,361.167 102.290 C 361.167 102.479,359.008 104.893,358.417 105.365 C 351.991 110.497,341.436 109.849,336.223 104.002 C 333.323 100.750,329.980 93.905,328.183 87.537 C 328.009 86.921,327.705 85.892,327.506 85.250 C 327.138 84.060,326.963 83.432,326.345 81.089 C 325.789 78.980,325.481 78.966,324.363 81.000 C 320.222 88.529,313.308 96.375,308.086 99.473 C 300.714 103.846,295.195 100.788,293.848 91.583 C 293.427 88.706,292.955 70.884,293.026 60.552 L 293.083 52.188 293.583 51.656 C 294.644 50.528,296.385 50.050,297.352 50.621 " stroke="none" fill="#999999" fill-rule="evenodd"></path><path id="path4" d="M36.708 2.792 C 55.385 2.815,85.948 2.815,104.625 2.792 C 123.302 2.768,108.021 2.749,70.667 2.749 C 33.313 2.749,18.031 2.768,36.708 2.792 M138.749 70.833 C 138.749 108.188,138.768 123.469,138.792 104.792 C 138.815 86.115,138.815 55.552,138.792 36.875 C 138.768 18.198,138.749 33.479,138.749 70.833 M270.131 35.508 C 263.985 36.224,257.065 43.716,254.475 52.458 C 254.306 53.031,254.011 54.006,253.821 54.625 C 251.798 61.208,251.254 69.590,252.476 75.333 C 253.802 81.568,257.414 84.569,261.918 83.179 C 265.063 82.207,269.495 78.565,272.755 74.273 C 276.716 69.059,279.564 65.880,280.353 65.794 C 280.844 65.740,280.956 66.768,280.682 68.813 C 280.248 72.051,280.127 72.881,279.818 74.750 C 279.636 75.850,279.340 77.556,279.160 78.542 C 278.980 79.527,278.680 81.177,278.492 82.208 C 278.305 83.240,278.074 84.458,277.981 84.917 C 277.887 85.375,277.661 86.575,277.478 87.583 C 277.294 88.592,276.993 90.204,276.807 91.167 C 276.622 92.129,276.373 93.479,276.255 94.167 C 276.042 95.413,275.697 97.294,275.249 99.667 C 275.119 100.354,274.966 101.329,274.908 101.833 C 274.851 102.337,274.699 103.340,274.569 104.060 C 273.955 107.475,274.715 109.167,276.863 109.167 C 279.414 109.167,283.436 104.681,285.831 99.167 C 286.129 98.479,286.433 97.842,286.506 97.750 C 286.777 97.408,287.492 95.297,287.531 94.723 C 287.647 92.992,285.255 93.169,283.223 95.043 C 281.785 96.368,281.779 95.175,283.184 86.750 C 283.800 83.060,284.585 78.624,285.088 76.000 C 285.219 75.313,285.409 74.002,285.510 73.088 C 285.611 72.173,285.723 71.377,285.759 71.319 C 285.795 71.261,285.943 70.247,286.088 69.065 C 286.233 67.883,286.421 66.609,286.505 66.232 C 286.721 65.263,287.089 57.547,287.056 54.667 C 286.990 48.850,286.096 44.977,284.021 41.521 C 281.348 37.068,276.129 34.808,270.131 35.508 M276.043 36.154 C 279.961 37.163,282.146 38.932,284.499 43.000 C 284.579 43.137,284.808 43.700,285.008 44.250 C 285.208 44.800,285.474 45.493,285.599 45.790 C 285.724 46.087,285.906 46.837,286.004 47.457 C 286.102 48.076,286.262 48.883,286.362 49.250 C 287.040 51.761,286.733 62.518,285.808 68.667 C 285.719 69.262,285.570 70.350,285.479 71.083 C 285.253 72.886,284.709 76.236,284.166 79.167 C 284.072 79.671,283.841 80.983,283.652 82.083 C 283.464 83.183,283.164 84.833,282.986 85.750 C 282.809 86.667,282.663 87.679,282.663 88.000 C 282.663 88.321,282.551 88.996,282.414 89.500 C 281.915 91.343,281.737 95.478,282.139 95.880 L 282.487 96.228 283.407 95.357 C 285.819 93.076,287.822 93.398,286.895 95.917 C 283.918 104.008,278.721 110.049,275.934 108.658 C 274.472 107.927,274.369 106.004,275.483 100.167 C 275.796 98.528,276.203 96.278,276.418 95.000 C 276.764 92.950,277.009 91.665,277.347 90.136 C 277.523 89.340,277.667 88.512,277.667 88.296 C 277.667 88.080,277.777 87.480,277.912 86.961 C 278.047 86.443,278.271 85.321,278.410 84.468 C 278.786 82.168,278.990 81.077,279.346 79.469 C 279.522 78.673,279.666 77.811,279.665 77.553 C 279.664 77.295,279.809 76.333,279.988 75.417 C 280.166 74.500,280.390 73.188,280.486 72.500 C 280.581 71.813,280.729 70.837,280.814 70.333 C 281.177 68.178,281.197 65.908,280.857 65.488 L 280.540 65.097 279.901 65.584 C 278.913 66.338,276.755 68.589,275.764 69.901 C 275.272 70.551,274.702 71.271,274.498 71.500 C 274.293 71.729,273.591 72.629,272.938 73.499 C 271.839 74.963,270.693 76.262,268.583 78.434 C 261.470 85.756,254.245 84.227,252.748 75.083 C 252.687 74.717,252.528 73.857,252.394 73.174 C 251.847 70.395,252.248 61.312,253.005 59.333 C 253.092 59.104,253.234 58.408,253.320 57.787 C 253.406 57.165,253.584 56.340,253.716 55.953 C 253.848 55.566,254.124 54.688,254.330 54.000 C 254.781 52.496,255.241 51.233,255.789 50.000 C 256.012 49.496,256.312 48.821,256.454 48.500 C 256.987 47.295,257.425 46.405,257.685 46.001 C 260.996 40.841,262.933 38.856,266.417 37.055 C 269.080 35.677,272.830 35.326,276.043 36.154 M271.417 40.132 C 270.597 40.191,268.678 40.794,268.320 41.105 C 268.175 41.231,268.004 41.333,267.938 41.333 C 267.678 41.333,266.027 42.682,265.056 43.687 C 263.736 45.053,263.415 45.456,262.218 47.250 C 261.691 48.041,259.899 51.502,259.587 52.333 C 259.467 52.654,259.203 53.329,259.000 53.833 C 258.021 56.275,257.082 59.018,256.577 60.917 C 256.431 61.467,256.206 62.254,256.077 62.667 C 254.923 66.363,254.935 71.696,256.101 73.013 C 256.229 73.158,256.335 73.345,256.336 73.430 C 256.350 74.112,258.271 76.083,259.167 76.335 C 262.400 77.241,271.991 71.300,275.583 66.165 C 276.042 65.510,276.686 64.624,277.014 64.196 C 278.383 62.411,279.797 59.157,280.449 56.289 C 281.018 53.786,280.734 48.985,279.902 47.063 C 279.316 45.709,278.792 44.607,278.650 44.432 C 278.569 44.332,278.159 43.817,277.738 43.287 C 277.051 42.421,274.854 40.667,274.457 40.667 C 274.371 40.667,274.064 40.560,273.775 40.430 C 273.179 40.161,272.390 40.061,271.417 40.132 M273.443 40.686 C 280.035 42.640,282.495 52.461,278.510 60.918 C 274.747 68.905,263.012 77.816,258.886 75.819 C 255.965 74.404,254.519 67.918,256.161 63.597 C 256.253 63.357,256.441 62.693,256.579 62.122 C 259.639 49.504,265.862 40.716,272.000 40.347 C 272.137 40.339,272.787 40.491,273.443 40.686 M89.455 41.454 C 89.750 41.490,90.275 41.491,90.621 41.455 C 90.967 41.419,90.725 41.389,90.083 41.388 C 89.442 41.387,89.159 41.417,89.455 41.454 M50.542 41.619 C 50.794 41.658,51.206 41.658,51.458 41.619 C 51.710 41.581,51.504 41.550,51.000 41.550 C 50.496 41.550,50.290 41.581,50.542 41.619 M82.910 44.208 L 82.083 45.083 82.958 44.256 C 83.771 43.488,83.910 43.333,83.785 43.333 C 83.759 43.333,83.365 43.727,82.910 44.208 M190.627 43.757 C 189.754 44.238,189.602 44.821,189.649 47.500 C 189.708 50.854,189.357 59.272,189.082 61.083 C 188.957 61.908,188.809 63.108,188.754 63.750 C 188.650 64.955,188.177 68.082,187.745 70.417 C 187.609 71.150,187.427 72.200,187.339 72.750 C 187.252 73.300,186.982 74.650,186.741 75.750 C 186.499 76.850,186.202 78.275,186.081 78.917 C 185.960 79.558,185.789 80.271,185.701 80.500 C 185.613 80.729,185.485 81.329,185.417 81.833 C 185.348 82.337,185.220 82.938,185.132 83.167 C 185.044 83.396,184.872 84.108,184.749 84.750 C 184.387 86.650,183.820 89.221,183.732 89.363 C 183.687 89.435,183.544 90.039,183.413 90.706 C 183.283 91.372,183.030 92.554,182.851 93.333 C 182.672 94.112,182.379 95.425,182.200 96.250 C 181.866 97.783,181.662 98.651,181.219 100.417 C 180.004 105.268,180.387 106.659,183.285 107.931 L 184.750 108.573 187.770 108.635 C 190.716 108.696,196.139 108.498,200.667 108.165 C 216.236 107.019,233.563 107.045,235.783 108.218 C 236.578 108.638,236.564 108.646,238.651 106.625 C 239.716 105.594,241.338 104.075,242.255 103.250 C 243.172 102.425,244.540 101.194,245.296 100.515 C 246.051 99.835,246.819 99.175,247.002 99.046 C 247.819 98.474,248.178 96.202,247.551 95.575 C 246.957 94.980,245.506 95.317,242.996 96.632 C 240.335 98.026,239.653 98.239,235.417 99.001 C 229.237 100.111,227.874 100.458,226.509 101.271 C 225.670 101.771,225.352 101.855,223.739 102.005 C 222.737 102.098,221.317 102.243,220.583 102.326 C 219.850 102.410,218.537 102.523,217.667 102.578 C 216.796 102.633,214.958 102.789,213.583 102.924 C 205.617 103.708,198.230 104.034,196.165 103.693 C 195.570 103.595,194.596 103.433,194.000 103.332 C 190.955 102.817,189.032 101.651,188.562 100.034 C 188.285 99.081,188.286 99.064,189.082 95.000 C 189.734 91.668,189.864 90.978,190.094 89.602 C 190.231 88.787,190.379 88.061,190.424 87.988 C 190.469 87.915,190.622 86.973,190.763 85.895 C 190.905 84.817,191.049 83.888,191.085 83.830 C 191.121 83.773,191.229 83.056,191.325 82.238 C 191.421 81.419,191.611 80.075,191.747 79.250 C 192.212 76.414,193.082 69.668,193.348 66.833 C 193.429 65.962,193.570 64.800,193.661 64.250 C 193.752 63.700,193.903 62.350,193.996 61.250 C 194.089 60.150,194.276 58.313,194.413 57.167 C 195.053 51.802,195.002 50.089,194.129 47.500 C 193.057 44.319,191.883 43.065,190.627 43.757 M191.753 44.096 C 192.489 44.445,193.017 45.287,193.575 47.000 C 193.829 47.779,194.145 48.709,194.277 49.065 C 194.597 49.934,194.584 53.949,194.255 55.814 C 194.119 56.583,193.962 58.008,193.906 58.981 C 193.850 59.954,193.700 61.387,193.573 62.167 C 193.447 62.946,193.299 64.221,193.245 65.000 C 193.191 65.779,193.035 67.092,192.899 67.917 C 192.763 68.742,192.588 70.167,192.511 71.083 C 192.350 72.993,191.933 76.136,191.584 78.083 C 191.453 78.817,191.300 79.904,191.244 80.500 C 191.189 81.096,191.041 82.071,190.916 82.667 C 190.791 83.262,190.638 84.313,190.577 85.000 C 190.516 85.688,190.366 86.625,190.244 87.083 C 190.122 87.542,189.973 88.329,189.913 88.833 C 189.853 89.337,189.703 90.125,189.580 90.583 C 189.457 91.042,189.307 91.829,189.247 92.333 C 189.187 92.837,189.037 93.625,188.913 94.083 C 188.790 94.542,188.640 95.329,188.581 95.833 C 188.521 96.337,188.366 97.120,188.236 97.572 C 187.323 100.751,189.047 102.588,194.000 103.714 C 195.838 104.132,203.698 104.219,207.000 103.858 C 207.963 103.753,210.287 103.553,212.167 103.414 C 214.046 103.275,215.678 103.126,215.794 103.085 C 215.911 103.043,217.186 102.930,218.628 102.835 C 222.161 102.602,225.474 102.185,226.083 101.896 C 226.358 101.766,226.864 101.487,227.207 101.277 C 227.959 100.815,230.733 100.177,236.417 99.157 C 239.118 98.673,240.998 98.097,242.498 97.295 C 243.187 96.926,243.938 96.524,244.167 96.401 C 246.528 95.132,247.616 95.429,247.461 97.301 C 247.378 98.307,247.411 98.267,244.660 100.667 C 243.454 101.719,243.400 101.767,241.324 103.667 C 239.478 105.356,238.735 106.055,237.459 107.302 L 236.501 108.239 236.030 107.961 C 234.594 107.112,215.721 106.666,209.167 107.326 C 208.112 107.432,205.000 107.629,202.250 107.763 C 199.500 107.898,196.387 108.077,195.333 108.161 C 191.465 108.470,185.294 108.377,184.298 107.996 C 181.214 106.814,180.944 106.515,180.960 104.295 C 180.967 103.226,181.068 102.302,181.227 101.833 C 181.368 101.421,181.565 100.566,181.665 99.934 C 181.765 99.302,181.912 98.665,181.991 98.518 C 182.069 98.370,182.185 97.875,182.247 97.417 C 182.309 96.958,182.442 96.321,182.542 96.000 C 182.719 95.432,183.118 93.692,183.576 91.500 C 183.810 90.375,184.224 88.569,184.510 87.417 C 184.601 87.050,184.782 86.186,184.911 85.496 C 185.040 84.807,185.216 84.057,185.302 83.830 C 185.388 83.603,185.515 83.004,185.583 82.500 C 185.652 81.996,185.780 81.396,185.868 81.167 C 185.956 80.938,186.125 80.225,186.243 79.583 C 186.361 78.942,186.540 78.079,186.640 77.667 C 187.183 75.434,187.390 74.448,187.590 73.167 C 187.711 72.387,187.888 71.337,187.983 70.833 C 188.468 68.275,188.829 65.955,188.918 64.833 C 188.972 64.146,189.118 63.058,189.243 62.417 C 189.368 61.775,189.519 60.050,189.578 58.583 C 189.637 57.117,189.763 55.129,189.858 54.167 C 189.953 53.204,190.024 50.805,190.016 48.834 C 190.000 45.047,190.105 44.328,190.714 44.034 C 191.197 43.801,191.122 43.796,191.753 44.096 M40.893 51.667 C 40.893 52.538,40.922 52.894,40.956 52.458 C 40.990 52.023,40.990 51.310,40.956 50.875 C 40.922 50.440,40.893 50.796,40.893 51.667 M79.890 51.417 C 79.891 52.150,79.920 52.429,79.956 52.037 C 79.991 51.645,79.990 51.045,79.954 50.704 C 79.919 50.363,79.890 50.683,79.890 51.417 M294.917 50.731 C 294.458 50.947,293.858 51.364,293.583 51.656 L 293.083 52.188 293.026 60.552 C 292.955 70.884,293.427 88.706,293.848 91.583 C 295.195 100.788,300.714 103.846,308.086 99.473 C 313.308 96.375,320.222 88.529,324.363 81.000 C 325.481 78.966,325.789 78.980,326.345 81.089 C 326.963 83.432,327.138 84.060,327.506 85.250 C 327.705 85.892,328.009 86.921,328.183 87.537 C 329.980 93.905,333.323 100.750,336.223 104.002 C 341.436 109.849,351.991 110.497,358.417 105.365 C 359.008 104.893,361.167 102.479,361.167 102.290 C 361.167 102.218,361.370 101.842,361.618 101.455 C 361.866 101.067,362.076 100.734,362.084 100.715 C 362.156 100.536,362.833 100.954,363.042 101.308 C 364.209 103.283,370.734 107.553,375.500 109.459 C 377.886 110.413,384.942 109.968,387.417 108.707 C 392.632 106.049,393.552 97.601,389.572 88.917 C 388.834 87.307,388.685 87.139,382.360 80.750 C 372.704 70.998,370.239 68.004,368.476 63.883 C 366.844 60.068,367.837 57.621,371.475 56.493 C 375.348 55.292,377.048 56.369,379.851 61.799 C 381.867 65.705,382.910 66.583,385.530 66.583 C 389.431 66.584,389.697 61.944,386.029 57.900 C 380.471 51.773,370.808 49.571,366.617 53.476 C 361.549 58.199,361.804 65.020,367.308 71.917 C 367.820 72.558,371.328 76.196,375.105 80.000 C 382.367 87.316,383.592 88.670,384.899 90.830 C 389.212 97.956,386.692 106.102,380.188 106.054 C 376.207 106.024,372.303 103.498,365.389 96.476 L 363.360 94.417 363.176 93.189 C 362.752 90.370,361.000 88.904,358.583 89.345 C 356.904 89.651,356.320 90.859,356.252 94.167 C 356.189 97.225,355.956 97.758,354.113 99.063 C 346.562 104.406,340.127 102.996,336.218 95.141 C 334.869 92.429,334.181 90.238,333.166 85.417 C 332.972 84.500,332.709 83.296,332.580 82.740 C 332.451 82.185,332.266 80.872,332.169 79.823 C 332.072 78.775,331.920 77.504,331.831 77.000 C 331.543 75.363,331.006 66.867,331.002 63.886 C 330.999 61.577,330.174 59.879,328.192 58.103 C 327.385 57.380,325.533 60.576,324.195 65.000 C 324.098 65.321,323.825 66.108,323.588 66.750 C 323.352 67.392,322.886 68.704,322.552 69.667 C 322.218 70.629,321.733 71.942,321.473 72.583 C 321.214 73.225,321.001 73.814,321.001 73.891 C 321.000 73.969,320.893 74.269,320.762 74.558 C 320.632 74.847,320.189 75.946,319.780 77.000 C 319.370 78.054,318.830 79.442,318.579 80.083 C 314.944 89.394,309.841 95.229,305.333 95.229 C 302.662 95.229,300.868 94.022,299.545 91.333 C 298.381 88.969,298.450 90.181,298.336 70.250 C 298.260 56.988,298.178 51.925,298.035 51.496 C 297.649 50.343,296.390 50.034,294.917 50.731 M297.315 51.093 L 297.822 51.520 297.877 69.635 C 297.941 90.527,297.806 88.917,299.786 92.580 C 301.994 96.665,308.727 96.317,312.050 91.947 C 312.307 91.610,312.777 91.052,313.094 90.708 C 314.114 89.604,315.833 86.853,316.818 84.750 C 317.118 84.108,317.619 83.069,317.932 82.441 C 318.244 81.813,318.500 81.213,318.501 81.108 C 318.502 81.003,318.606 80.718,318.733 80.474 C 318.860 80.231,319.055 79.755,319.167 79.417 C 319.278 79.078,319.474 78.602,319.601 78.359 C 319.727 78.116,319.832 77.825,319.832 77.713 C 319.833 77.601,319.980 77.188,320.158 76.796 C 320.337 76.404,320.679 75.558,320.917 74.917 C 321.156 74.275,321.420 73.600,321.504 73.417 C 321.651 73.098,321.916 72.375,322.422 70.917 C 322.549 70.550,322.849 69.725,323.089 69.083 C 323.328 68.442,323.596 67.654,323.684 67.333 C 323.773 67.012,323.945 66.563,324.066 66.333 C 324.188 66.104,324.339 65.692,324.402 65.417 C 324.528 64.862,325.057 63.446,325.527 62.406 C 325.696 62.033,325.833 61.664,325.833 61.585 C 325.833 61.506,326.150 60.784,326.537 59.981 C 327.567 57.840,327.690 57.849,329.501 60.192 L 330.617 61.635 330.738 66.192 C 330.805 68.699,330.927 71.313,331.010 72.000 C 331.093 72.688,331.242 74.262,331.341 75.498 C 331.440 76.735,331.629 78.310,331.760 78.998 C 331.892 79.687,332.000 80.584,332.000 80.992 C 332.000 81.400,332.155 82.413,332.344 83.242 C 332.987 86.060,333.312 87.582,333.413 88.250 C 333.524 88.980,333.862 90.123,334.351 91.420 C 334.525 91.880,334.667 92.346,334.667 92.456 C 334.667 92.863,336.406 96.296,337.286 97.623 C 340.376 102.289,345.311 103.841,350.108 101.656 C 350.497 101.478,350.860 101.333,350.915 101.333 C 351.097 101.333,353.736 99.784,354.417 99.278 C 356.244 97.920,356.540 97.207,356.581 94.063 C 356.628 90.476,357.182 89.633,359.495 89.633 C 361.359 89.633,362.670 91.117,362.923 93.514 L 363.036 94.583 365.810 97.333 C 371.790 103.263,374.569 105.268,378.083 106.189 C 384.912 107.977,389.477 100.889,386.417 93.250 C 384.999 89.710,383.644 88.051,375.691 80.123 C 370.413 74.860,368.127 72.455,366.784 70.751 C 366.414 70.282,365.126 68.157,364.813 67.500 C 364.617 67.087,364.353 66.538,364.228 66.278 C 363.532 64.836,363.034 61.379,363.313 59.917 C 364.079 55.900,367.070 52.541,370.376 51.985 C 378.288 50.656,389.445 58.441,388.071 64.332 C 387.692 65.956,387.287 66.251,385.442 66.245 C 382.875 66.237,381.897 65.368,380.006 61.417 C 378.790 58.875,377.414 57.142,375.769 56.077 C 375.069 55.624,372.791 55.676,371.332 56.179 C 367.127 57.629,366.370 60.416,368.818 65.435 C 370.401 68.681,373.891 72.730,382.804 81.662 C 388.615 87.487,389.257 88.285,389.914 90.500 C 389.982 90.729,390.129 91.142,390.241 91.417 C 393.129 98.500,391.734 106.429,387.250 108.421 C 383.852 109.931,376.320 110.074,374.417 108.666 C 374.325 108.598,373.537 108.183,372.667 107.745 C 368.036 105.412,364.827 103.184,363.580 101.437 C 362.580 100.034,361.578 100.159,361.067 101.750 C 360.945 102.128,360.085 103.238,359.089 104.303 C 357.831 105.648,354.884 107.346,353.083 107.763 C 352.808 107.827,352.497 107.947,352.392 108.030 C 351.739 108.541,345.791 108.586,344.270 108.091 C 343.892 107.968,343.283 107.818,342.917 107.757 C 339.036 107.109,335.496 103.682,332.424 97.598 C 331.641 96.048,330.997 94.698,330.994 94.598 C 330.991 94.498,330.844 94.117,330.667 93.750 C 330.490 93.383,330.340 92.971,330.333 92.833 C 330.327 92.696,330.177 92.283,330.000 91.917 C 329.823 91.550,329.673 91.138,329.667 91.000 C 329.660 90.862,329.510 90.450,329.333 90.083 C 329.156 89.717,329.009 89.278,329.006 89.109 C 329.003 88.939,328.892 88.564,328.761 88.275 C 328.629 87.986,328.401 87.300,328.253 86.750 C 327.677 84.612,327.521 84.066,327.347 83.583 C 327.248 83.308,327.052 82.633,326.912 82.083 C 326.772 81.533,326.560 80.704,326.441 80.240 C 326.046 78.698,325.449 78.511,324.738 79.708 C 324.507 80.098,323.928 81.078,323.451 81.887 C 322.046 84.268,321.450 85.217,320.866 86.006 C 320.563 86.415,319.821 87.425,319.217 88.249 C 318.613 89.074,318.031 89.824,317.923 89.916 C 317.815 90.008,317.233 90.683,316.631 91.417 C 310.700 98.640,303.491 102.579,299.583 100.731 C 297.702 99.842,295.535 97.468,295.494 96.251 C 295.491 96.159,295.344 95.783,295.167 95.417 C 294.990 95.050,294.842 94.629,294.839 94.480 C 294.836 94.332,294.680 93.732,294.492 93.147 C 294.234 92.345,294.110 91.303,293.986 88.917 C 293.896 87.175,293.750 84.400,293.661 82.750 C 293.462 79.039,293.240 53.635,293.399 52.785 C 293.695 51.208,296.177 50.136,297.315 51.093 M97.833 57.875 C 97.587 58.210,97.547 58.327,97.727 58.180 C 98.001 57.958,98.414 57.333,98.287 57.333 C 98.255 57.333,98.051 57.577,97.833 57.875 M82.917 58.833 C 83.368 59.292,83.775 59.667,83.821 59.667 C 83.867 59.667,83.535 59.292,83.083 58.833 C 82.632 58.375,82.225 58.000,82.179 58.000 C 82.133 58.000,82.465 58.375,82.917 58.833 M46.000 61.500 C 46.290 61.867,46.566 62.167,46.611 62.167 C 46.657 62.167,46.457 61.867,46.167 61.500 C 45.876 61.133,45.601 60.833,45.555 60.833 C 45.509 60.833,45.710 61.133,46.000 61.500 M89.542 61.786 C 89.794 61.824,90.206 61.824,90.458 61.786 C 90.710 61.748,90.504 61.717,90.000 61.717 C 89.496 61.717,89.290 61.748,89.542 61.786 M49.709 69.917 C 49.711 70.283,49.745 70.414,49.785 70.206 C 49.824 69.999,49.823 69.699,49.781 69.540 C 49.739 69.380,49.707 69.550,49.709 69.917 M52.205 71.000 C 52.205 71.321,52.240 71.452,52.282 71.292 C 52.323 71.131,52.323 70.869,52.282 70.708 C 52.240 70.548,52.205 70.679,52.205 71.000 M49.709 72.250 C 49.711 72.617,49.745 72.747,49.785 72.540 C 49.824 72.332,49.823 72.032,49.781 71.873 C 49.739 71.714,49.707 71.883,49.709 72.250 M95.986 82.394 C 96.208 82.667,96.833 83.080,96.833 82.954 C 96.833 82.922,96.590 82.718,96.292 82.499 C 95.956 82.254,95.840 82.214,95.986 82.394 M58.417 83.500 C 59.053 84.142,59.612 84.667,59.658 84.667 C 59.704 84.667,59.220 84.142,58.583 83.500 C 57.947 82.858,57.388 82.333,57.342 82.333 C 57.296 82.333,57.780 82.858,58.417 83.500 M40.893 90.500 C 40.893 91.371,40.922 91.727,40.956 91.292 C 40.990 90.856,40.990 90.144,40.956 89.708 C 40.922 89.273,40.893 89.629,40.893 90.500 M69.458 91.790 C 69.940 91.823,70.727 91.823,71.208 91.790 C 71.690 91.756,71.296 91.728,70.333 91.728 C 69.371 91.728,68.977 91.756,69.458 91.790 M43.833 97.719 C 43.833 97.760,44.109 98.004,44.445 98.260 C 44.782 98.517,45.004 98.642,44.940 98.538 C 44.808 98.325,43.833 97.603,43.833 97.719 M50.794 100.618 C 51.001 100.658,51.301 100.656,51.460 100.615 C 51.620 100.573,51.450 100.540,51.083 100.542 C 50.717 100.544,50.586 100.578,50.794 100.618 M89.458 100.618 C 89.665 100.657,90.002 100.657,90.208 100.618 C 90.415 100.578,90.246 100.545,89.833 100.545 C 89.421 100.545,89.252 100.578,89.458 100.618 " stroke="none" fill="#7c7c7c" fill-rule="evenodd"></path></g></svg></svg></g></svg>